<?xml version="1.0" encoding="UTF-8" standalone="no"?>
<!-- Created with Inkscape (http://www.inkscape.org/) -->

<svg
   width="1000"
   height="1000"
   viewBox="0 0 1000 1000"
   version="1.1"
   id="svg1"
   inkscape:version="1.4.2 (f4327f4, 2025-05-13)"
   sodipodi:docname="icon_circle.svg"
   xml:space="preserve"
   inkscape:export-filename="icon_circle2.png"
   inkscape:export-xdpi="96"
   inkscape:export-ydpi="96"
   xmlns:inkscape="http://www.inkscape.org/namespaces/inkscape"
   xmlns:sodipodi="http://sodipodi.sourceforge.net/DTD/sodipodi-0.dtd"
   xmlns="http://www.w3.org/2000/svg"
   xmlns:svg="http://www.w3.org/2000/svg"><sodipodi:namedview
     id="namedview1"
     pagecolor="#ffffff"
     bordercolor="#999999"
     borderopacity="1"
     inkscape:showpageshadow="2"
     inkscape:pageopacity="0"
     inkscape:pagecheckerboard="0"
     inkscape:deskcolor="#d1d1d1"
     inkscape:document-units="px"
     inkscape:zoom="0.5499273"
     inkscape:cx="537.34375"
     inkscape:cy="630.9925"
     inkscape:window-width="3840"
     inkscape:window-height="2054"
     inkscape:window-x="-11"
     inkscape:window-y="-11"
     inkscape:window-maximized="1"
     inkscape:current-layer="layer1" /><defs
     id="defs1" /><g
     inkscape:label="Layer 1"
     inkscape:groupmode="layer"
     id="layer1"
     style="display:inline"><circle
       style="display:inline;fill:#4285f4;stroke-width:2.4145;fill-opacity:1"
       id="path1"
       cx="500"
       cy="500"
       r="500"
       inkscape:label="RedCircle" /><g
       transform="matrix(0.15958934,0,0,-0.15958934,91.235002,908.52074)"
       fill="#000000"
       stroke="none"
       id="g3"
       style="display:inline;opacity:1;fill:#ffffff"
       inkscape:label="flag3"><path
         d="m 1207,4422 c -22,-24 -52,-143 -73,-285 -23,-158 -15,-469 15,-621 123,-609 487,-1056 1206,-1485 527,-314 1075,-482 1490,-457 141,8 163,13 182,42 30,46 12,67 -114,139 -159,91 -372,233 -561,375 -738,551 -1418,1291 -1942,2110 -61,96 -116,180 -122,187 -15,19 -62,16 -81,-5 z"
         id="path1-8"
         style="fill:#ffffff"
         inkscape:label="path1"
         sodipodi:nodetypes="ccccccccccc" /><path
         d="m 1110,2735 c -23,-27 -34,-198 -22,-335 25,-282 123,-514 292,-694 168,-178 355,-275 695,-361 304,-77 520,-105 812,-105 221,0 396,21 543,64 115,33 144,69 98,119 -19,20 -54,30 -203,62 -451,94 -874,238 -1226,416 -402,203 -695,462 -858,760 -44,79 -49,84 -82,87 -23,2 -40,-2 -49,-13 z"
         id="path2"
         style="fill:#ffffff"
         sodipodi:nodetypes="ccccsccccccc" /><path
         d="m 1403,1245 c -53,-38 -16,-104 134,-245 219,-206 490,-320 757,-320 143,1 344,35 501,87 227,74 457,224 458,297 0,55 13,53 -486,59 -572,7 -875,33 -1182,103 -60,14 -121,27 -135,30 -15,3 -34,-2 -47,-11 z"
         id="path3"
         sodipodi:nodetypes="ccccccccc"
         style="fill:#ffffff;stroke-width:1.00257323;stroke-dasharray:none"
         inkscape:label="path3" /></g></g></svg>
